<?xml version="1.0" encoding="utf-8"?>
<!-- Generator: Adobe Illustrator 19.0.0, SVG Export Plug-In . SVG Version: 6.00 Build 0)  -->
<svg version="1.1" id="Layer_1" xmlns="http://www.w3.org/2000/svg" xmlns:xlink="http://www.w3.org/1999/xlink" x="0px" y="0px"
	 viewBox="0 0 650 650" style="enable-background:new 0 0 650 650;" xml:space="preserve">
<style type="text/css">
	.st0{fill:#05A3C6;}
</style>
<path class="st0" d="M152.2,128.4c5.9,19.5,11.6,38.1,17.3,56.8c1-0.1,1.9-0.2,2.9-0.3c0-10.7-0.2-21.3,0.2-32
	c0.1-2.1,2.3-4.6,4.3-5.8c1.1-0.7,4.1,0.5,5.4,1.7c1.1,1.1,1.5,3.4,1.5,5.1c0.1,10.5,0.1,20.9,0.1,31.4c1,0.1,2,0.2,3,0.3
	c4.8-19.1,9.6-38.1,14.8-58.6c15,5,30.1,9.9,44.9,15.2c2.2,0.8,3.9,3.5,5.6,5.6c6.7,8.1,12.6,16.9,19.9,24.4
	c9.9,10.2,20.9,19.3,31.3,29c3.7,3.5,6.8,4.4,11.4,1.4c21.6-14,43.3-27.7,65-41.4c3.2-2,6.5-4.2,10-5.6c7.1-2.6,14.1-0.5,18.7,5.1
	s5.2,13.5,1.2,20c-1.5,2.4-3.4,4.8-5.6,6.4c-27.6,19.8-55.1,39.7-83.1,59c-11.2,7.7-19.3,6.8-30-1.7c-13.7-10.9-27.1-22.1-40.6-33.2
	c-0.7-0.6-1.5-1.1-3.2-2.3c0,52,0,103.1,0,154.6c-2.7,0.4-5.1,0.7-8.2,1.1c-0.3,3.1-0.8,6.3-0.9,9.4c-2.1,54.3-4.2,108.6-6.1,162.9
	c-1,28.9-1.7,57.8-2.5,86.7c-0.2,7.8-1.9,9.4-9.7,9.4c-7.5,0-15,0-22.5,0c-5.3,0-7.6-2.5-7.7-7.8c-1.1-43.7-2.3-87.4-3.4-131.2
	c-0.9-33.7-1.7-67.4-2.6-101.1c0-0.6,0-1.2-0.1-1.7c-0.2-4-1.3-7.7-6.1-7.4c-4.3,0.2-5.3,3.6-5.4,7.5c-0.2,9.6-0.6,19.3-0.8,28.9
	c-1.7,65.9-3.4,131.7-5,197.6c-0.1,3.1-0.1,6.2-0.4,9.2c-0.4,3.8-2.7,5.9-6.5,5.9c-8.6,0.1-17.3,0.1-25.9,0c-5.1,0-7-2.9-7.1-7.8
	c-0.7-25.6-1.3-51.2-2.2-76.8c-2.2-59.7-4.5-119.4-7-179c-0.1-2-2.2-3.8-3.4-5.7c-0.7,0.3-1.4,0.6-2.1,0.9c0-9.4-0.4-18.8,0.1-28.1
	c0.3-5.9-2.1-9.2-6.5-12.8c-24.7-20.2-49.1-40.7-73.4-61.4c-7.7-6.6-10.1-15.3-6.1-25.1c1.1-2.6,2.8-5.1,4.5-7.3
	c23.7-30.4,49.9-58.6,77.4-85.5c1.6-1.6,3.5-3.4,5.5-4C126,136.2,139,132.3,152.2,128.4z M111.3,279.7c0-26.5,0-51.9,0-77.2
	c-0.5-0.2-1-0.4-1.5-0.5c-12.3,14.1-24.5,28.1-37.5,42.9C85.7,256.8,98.3,268,111.3,279.7z"/>
<path class="st0" d="M594.6,101.9c-99.5,0-198.4,0-297.9,0c0,26.1,0,51.8,0,79.3c-6.2-5.9-11.3-10.7-16.1-15.7
	c-1.1-1.1-1.1-3.6-1.1-5.4c-0.1-17.1,0-34.3,0-51.4c0-2.1,0-4.2,0-6.6c-2.5-0.3-4.6-0.4-6.6-0.7c-6.2-0.9-10.8-6.2-10.6-12.4
	c0.2-6.2,5-11.3,11.2-11.9c2.1-0.2,4.2-0.1,6.3-0.1c48.6,0,97.1,0,145.7,0c2.3,0,4.6,0,7.9,0c0-7.7-0.2-14.9,0-22.2
	c0.2-7.1,4.3-11.7,10.4-12.5c8-1,14,3.8,14.4,11.9c0.3,7.3,0.1,14.6,0.1,22.8c2.9,0,5.1,0,7.3,0c48.7,0,97.5,0,146.2,0
	c1.9,0,3.8-0.1,5.8,0.1c6.6,0.5,11.6,5.5,11.8,11.9s-4.5,11.7-11.1,12.5c-1.9,0.2-3.7,0.3-5.8,0.5c0,70,0,139.7,0,209.7
	c2.4,0.3,4.6,0.4,6.8,0.8c6.2,1.3,10.3,6.2,10.2,12.2c-0.1,6.1-4.7,11.2-11,12.1c-1.9,0.3-3.8,0.1-5.7,0.1c-48.9,0-97.9,0-146.8,0
	c-2.2,0-4.5,0-7.4,0c0,2.7,0,4.8,0,6.9c0,45.9,0,91.7-0.1,137.6c0,4.1,1.1,7.2,4,10.2c38,40.3,75.8,80.7,113.7,121.1
	c1.1,1.1,2.2,2.2,3.1,3.4c3.3,4.3,3,10.1-0.5,13.7c-3.7,3.7-9.3,4.2-13.6,0.9c-1.8-1.4-3.3-3.2-4.9-4.9
	c-32.2-34.4-64.5-68.7-96.7-103.1c-1.2-1.2-2-2.8-3.1-4.1c-0.5,0.2-1.1,0.5-1.6,0.7c-0.1,1.9-0.3,3.9-0.3,5.8
	c0,15.6,0.1,31.2-0.1,46.8c-0.1,6.6-4.2,11.3-10,12.3c-5.5,1-11.3-1.6-13.4-6.7c-1.1-2.7-1.4-6-1.4-9c-0.1-14.3-0.1-28.5-0.1-42.8
	c0-2.1,0-4.1,0-8c-2.5,2.5-4,3.8-5.3,5.2c-32,34.1-63.9,68.2-95.9,102.3c-1.3,1.4-2.6,2.9-4,4.2c-4.7,4.4-10.8,4.4-15,0.3
	c-3.9-3.9-4-10,0.1-14.5c7.1-7.8,14.4-15.5,21.7-23.2c31.6-33.7,63.2-67.3,94.6-101.1c2-2.1,3.5-5.6,3.5-8.5
	c0.2-46.6,0.2-93.3,0.1-139.9c0-1.7-0.2-3.4-0.4-5.8c-2.5,0-4.8,0-7,0c-48.7,0-97.5,0-146.2,0c-1.7,0-3.5,0.1-5.2,0
	c-7-0.5-12.1-5.7-12.2-12.2c-0.1-6.3,4.6-11.5,11.3-12.5c1.7-0.2,3.4-0.3,5.6-0.4c0-20.4,0-40.8,0-61.8c6,3.6,11.4,6.7,16.5,10.2
	c0.9,0.7,0.9,3.1,0.9,4.8c0.1,13.3,0,26.6,0,39.9c0,2.1,0,4.2,0,6.7c99.5,0,198.6,0,298,0C594.6,241.8,594.6,172.2,594.6,101.9z"/>
<path class="st0" d="M139.9,58.3C139.2,33.1,157.3,16,180.2,17c22.5,1.1,38.6,19.8,36,41.9c-2.1,17.7-7.5,34.2-19.7,47.7
	c-11.3,12.5-25.4,12.2-37-0.1c-1.3-1.4-2.6-2.9-3.7-4.4C146,88,141,72.3,139.9,58.3z"/>
</svg>
